# xmcd
#
# Track frame offsets: 
#        150
#        14849
#        29563
#        45885
#        70137
#        85973
#        104573
#        124302
#        141236
#        155435
#
# Disc length: 2273 seconds
#
# Revision: 0
# Processed by: cddbd v1.5.2PL0 Copyright (c) Steve Scherf et al.
# Submitted via: ExactAudioCopyFreeDBPlugin 1.0
#
DISCID=8b08df0a
DTITLE=The Northern Belle - The Northern Belle
DYEAR=2015
DGENRE=Country
TTITLE0=Don't You Go, Don't You Dare
TTITLE1=Every Day, Every Night
TTITLE2=Ain't Staying Around
TTITLE3=While the Morning Breaks
TTITLE4=Say Hello to My Friends
TTITLE5=Hurry Up
TTITLE6=I Know I Love Easily
TTITLE7=Keep on Blaming
TTITLE8=All the Tears I Cried
TTITLE9=I Got High Hopes
EXTD=
EXTT0=
EXTT1=
EXTT2=
EXTT3=
EXTT4=
EXTT5=
EXTT6=
EXTT7=
EXTT8=
EXTT9=
PLAYORDER=
